<svg xmlns="http://www.w3.org/2000/svg" width="64" height="64" fill="none" viewBox="0 0 64 64">
  <rect width="64" height="64" fill="#1D1D1F" rx="16"/>
  <path fill="#F7F7F7" fill-rule="evenodd" d="M22.88 46.88c4.48 0 7.284-3.388 7.284-8.771 0-5.403-2.805-8.791-7.285-8.791s-7.284 3.388-7.284 8.79c0 5.365 2.804 8.772 7.284 8.772h.001Zm13.304-26.23c.146-.25.226-.538.226-.85v-.679l-1.957.132c-.776.053-1.25.262-1.464.627-.095.17-.143.364-.137.56 0 .752.622 1.166 1.488 1.166.828 0 1.509-.377 1.844-.956Zm7.42 2.25c-2.334 0-3.765-1.582-3.765-4.18.001-2.54 1.431-4.122 3.765-4.102 2.014 0 3.219 1.167 3.426 2.71h-1.544c-.169-.771-.828-1.374-1.882-1.374-1.317 0-2.127 1.036-2.127 2.767 0 1.75.81 2.824 2.127 2.824.998 0 1.675-.47 1.883-1.337h1.543c-.207 1.582-1.45 2.692-3.426 2.692Zm-25.28-.152v-7.981l1.526-.018v1.28h.113c.337-.904 1.147-1.431 2.219-1.431 1.093 0 1.846.565 2.203 1.43h.132c.395-.864 1.318-1.43 2.428-1.43 1.62 0 2.56.979 2.56 2.635v5.516h-1.58v-5.121c0-1.111-.51-1.638-1.544-1.638-1.036 0-1.694.753-1.694 1.713v5.045h-1.544v-5.29c0-.903-.602-1.468-1.544-1.468-.96 0-1.694.828-1.694 1.863v4.895h-1.581Zm4.555 4.047c6.212 0 10.09 4.367 10.09 11.313 0 6.927-3.878 11.294-10.09 11.294-6.211.001-10.089-4.348-10.089-11.294 0-6.946 3.878-11.313 10.09-11.313h-.001Zm13.478-5.177c-.49.81-1.355 1.261-2.41 1.261-1.543 0-2.672-.922-2.654-2.353 0-1.449 1.073-2.277 2.975-2.39l2.164-.132v-.696c0-.885-.564-1.375-1.637-1.375-.885 0-1.506.32-1.676.904h-1.524c.17-1.335 1.45-2.22 3.275-2.22 2.014 0 3.144.997 3.144 2.673v5.458h-1.525v-1.13h-.132Zm8.49 15.285c4.555.997 6.362 2.805 6.362 5.91 0 4.047-3.181 6.589-8.057 6.589-4.78 0-7.962-2.447-8.225-6.23h2.729c.32 2.352 2.503 3.783 5.647 3.783 2.955 0 5.12-1.563 5.12-3.709 0-1.826-1.224-3.049-4.254-3.708l-2.428-.527c-4.386-.96-6.288-2.955-6.288-6.061 0-3.595 3.182-6.137 7.718-6.137 4.367 0 7.51 2.617 7.642 6.325h-2.729c-.245-2.41-2.127-3.877-4.988-3.877-2.73 0-4.838 1.336-4.838 3.557 0 1.713 1.167 2.899 4.16 3.558l2.429.527Z" clip-rule="evenodd"/>
</svg>
