<svg xmlns="http://www.w3.org/2000/svg" width="64" height="64" fill="none" viewBox="0 0 64 64">
  <path fill="#1D1D1F" d="M0 25.6c0-8.96 0-13.441 1.744-16.864a16 16 0 0 1 6.992-6.992C12.16 0 16.64 0 25.6 0h12.8c8.96 0 13.441 0 16.864 1.744a16 16 0 0 1 6.992 6.992C64 12.16 64 16.64 64 25.6v12.8c0 8.96 0 13.441-1.744 16.864a16 16 0 0 1-6.992 6.992C51.84 64 47.36 64 38.4 64H25.6c-8.96 0-13.441 0-16.864-1.744a16 16 0 0 1-6.992-6.992C0 51.84 0 47.36 0 38.4V25.6Z"/>
  <path fill="#1ED760" d="M30.531 6.795c5.266-.32 10.621 1.064 15.058 3.923a25.333 25.333 0 0 1 9.17 10.337c1.999 4.12 2.812 8.797 2.376 13.352a25.015 25.015 0 0 1-2.966 9.689 25.344 25.344 0 0 1-5.776 7.11 25.197 25.197 0 0 1-8.142 4.667 25.408 25.408 0 0 1-11.906 1.114 25.123 25.123 0 0 1-12.226-5.356 25.311 25.311 0 0 1-7.959-11.29 25.388 25.388 0 0 1-.221-16.015 25.205 25.205 0 0 1 6.117-10.085 25.147 25.147 0 0 1 16.475-7.446Zm-3.957 13.344c-3.399.118-6.804.535-10.077 1.479-.282.073-.56.17-.81.323-.907.53-1.36 1.716-1.023 2.715.324 1.173 1.668 1.918 2.836 1.586 2.94-.877 6.005-1.262 9.064-1.383a48.225 48.225 0 0 1 9.864.659c3.672.648 7.313 1.74 10.544 3.636a2.363 2.363 0 0 0 2.472-.081 2.362 2.362 0 0 0 .337-3.668c-.317-.305-.72-.492-1.097-.709-1.58-.879-3.25-1.59-4.958-2.178-2.662-.914-5.422-1.529-8.21-1.916a52.749 52.749 0 0 0-8.942-.463Zm-.98 8.725a34.29 34.29 0 0 0-7.645 1.285c-.248.07-.5.14-.721.276-.728.411-1.12 1.329-.914 2.139.12.522.46.993.93 1.253.489.301 1.108.335 1.646.158 3.009-.9 6.162-1.256 9.297-1.22a35.24 35.24 0 0 1 8.76 1.225c2.477.682 4.888 1.65 7.078 3.003.68.388 1.6.321 2.2-.185.38-.303.642-.751.71-1.232a1.963 1.963 0 0 0-.653-1.785c-.24-.21-.534-.339-.796-.514a30.225 30.225 0 0 0-3.557-1.752c-5.152-2.104-10.787-2.955-16.334-2.651Zm.916 8.21c-2.699.118-5.38.525-8.011 1.127a1.555 1.555 0 0 0-1.117 1.065c-.136.416-.07.882.145 1.26.255.427.72.726 1.217.766.325.033.64-.07.953-.136C23.725 40.281 27.9 39.9 32 40.44c3.29.426 6.51 1.485 9.347 3.215.427.28.99.356 1.467.16a1.573 1.573 0 0 0 .494-2.614c-.216-.195-.48-.322-.723-.475a26.473 26.473 0 0 0-7.138-2.852c-2.92-.7-5.94-.934-8.937-.8Z"/>
</svg>
