<svg xmlns="http://www.w3.org/2000/svg" width="49" height="48" fill="none" viewBox="0 0 49 48">
  <path fill="#1ED760" d="M25.453.02C12.21-.506 1.047 9.804.521 23.048c-.526 13.246 9.784 24.408 23.03 24.932 13.244.526 24.406-9.784 24.932-23.028C49.01 11.708 38.697.544 25.453.02Zm10.132 35.158a1.434 1.434 0 0 1-1.954.536 28.801 28.801 0 0 0-10.276-3.494 28.8 28.8 0 0 0-10.84.526 1.435 1.435 0 0 1-.676-2.784c3.9-.948 7.91-1.142 11.916-.58a31.672 31.672 0 0 1 11.294 3.84 1.433 1.433 0 0 1 .536 1.956Zm3.154-6.3a1.86 1.86 0 0 1-2.524.752 35.399 35.399 0 0 0-11.944-3.92 35.4 35.4 0 0 0-12.562.476 1.858 1.858 0 0 1-2.22-1.42 1.86 1.86 0 0 1 1.42-2.22 39 39 0 0 1 13.88-.524 39 39 0 0 1 13.198 4.33c.904.49 1.24 1.62.752 2.526Zm3.496-7.102a2.294 2.294 0 0 1-3.092.976 42.798 42.798 0 0 0-13.836-4.416 42.801 42.801 0 0 0-14.518.43 2.292 2.292 0 0 1-.912-4.492 47.4 47.4 0 0 1 16.068-.48 47.4 47.4 0 0 1 15.314 4.89 2.294 2.294 0 0 1 .976 3.092Z"/>
</svg>
