<svg xmlns="http://www.w3.org/2000/svg" width="132" height="32" fill="none" viewBox="0 0 132 32">
  <path fill="#717971" fill-rule="evenodd" d="M19.9 15.485a13.171 13.171 0 0 1-5.495 1.192 13.18 13.18 0 0 1-5.53-1.208l5.53-9.522 5.494 9.538Zm1.024 1.78a13.211 13.211 0 0 0-5.526 9.427h10.957l-5.43-9.427Zm-7.5 9.427a13.211 13.211 0 0 0-5.574-9.46l-5.496 9.46h11.07Z" clip-rule="evenodd"/>
  <path fill="#717971" d="M48.853 14.315c4.197 1.07 7.379 1.975 7.379 6.364 0 3.127-2.36 5.732-7.296 5.732-4.8 0-8.448-2.496-8.64-6.939h3.264c.164 2.496 1.865 4.142 5.376 4.142 2.907 0 4.032-1.29 4.032-2.798 0-2.331-1.674-2.77-5.54-3.73-3.073-.768-6.392-1.948-6.392-5.678 0-3.483 2.688-5.43 6.967-5.43 4.306 0 7.433 2.248 7.708 6.28h-3.264c-.302-2.276-1.729-3.483-4.444-3.483-2.331 0-3.73.878-3.73 2.331 0 2.14 1.837 2.524 4.58 3.21Zm15.985 12.096c-4.389 0-7.05-3.044-7.05-7.405 0-4.361 2.661-7.406 7.05-7.406 4.388 0 7.049 3.045 7.049 7.406 0 4.36-2.66 7.405-7.05 7.405Zm0-2.358c2.743 0 4.169-2.167 4.169-5.047 0-2.908-1.426-5.047-4.17-5.047-2.742 0-4.168 2.14-4.168 5.047 0 2.88 1.426 5.047 4.169 5.047ZM81.42 11.6c2.606 0 4.663 1.509 4.663 4.718V26h-2.907v-8.86c0-1.892-.796-3.099-2.77-3.099-2.222 0-3.649 1.344-3.649 3.429V26h-2.88V11.984h2.88v1.81h.055c.74-1.097 2.195-2.194 4.608-2.194Zm13.605 14.811c-4.388 0-7.049-3.044-7.049-7.405 0-4.361 2.66-7.406 7.05-7.406 4.388 0 7.048 3.045 7.048 7.406 0 4.36-2.66 7.405-7.049 7.405Zm0-2.358c2.743 0 4.17-2.167 4.17-5.047 0-2.908-1.427-5.047-4.17-5.047s-4.169 2.14-4.169 5.047c0 2.88 1.426 5.047 4.17 5.047Zm17.515-8.394c0-1.014-.603-1.782-2.523-1.782-2.304 0-3.154.713-3.291 2.523h-2.798c.137-2.688 1.865-4.8 6.089-4.8 3.099 0 5.403 1.18 5.403 4.91v6.665c0 .987.22 1.508 1.344 1.399v1.371a4.33 4.33 0 0 1-1.673.302c-1.536 0-2.249-.549-2.523-1.92h-.055c-.878 1.234-2.469 2.084-4.635 2.084-2.853 0-4.608-1.645-4.608-4.004 0-3.072 2.276-4.032 5.787-4.718 2.167-.411 3.483-.686 3.483-2.03Zm-4.032 8.476c2.387 0 4.032-1.18 4.032-3.456v-2.112c-.466.329-1.59.658-2.934.932-2.387.522-3.429 1.207-3.429 2.634 0 1.289.768 2.002 2.331 2.002Zm9.941-17.746h2.88v11.218l5.705-5.623h3.538l-5.321 5.211L131.148 26h-3.456l-4.416-6.912-1.947 1.838V26h-2.88V6.389Z"/>
</svg>
